:FULLY-SPECIFIED
:FORCE-ALL-JOINTS-BE-3DOF
:DEGREES
65
root 8.87051 16.0706 -27.6563 5.6882 -8.09368 -1.44173
lfemur -27.8566 5.46903 -21.0099
ltibia 31.0491 0 0
lfoot -8.26368 8.30955 0
ltoes -2.20635 0 0
rfemur -2.75763 3.3033 22.289
rtibia 34.4285 0 0
rfoot -10.682 -6.64474 0
rtoes -18.6709 0 0
lowerback -6.6303 -0.13683 -1.06455
upperback -1.37686 -0.278577 3.21322
thorax 2.37214 -0.141791 3.94129
lowerneck -21.8414 -4.29128 -12.0334
upperneck 18.0311 -5.06576 13.1579
head 10.0222 -1.70923 5.94801
lclavicle -2.50351e-14 -1.96845e-14 0
lhumerus -34.4444 -10.3747 89.1949
lradius 25.2472 0 0
lwrist 0.99058 0 0
lhand -2.70578 -20.5386 0
lfingers 7.12502 0 0
lthumb 22.9747 7.8794 0
rclavicle -2.50351e-14 -1.96845e-14 0
rhumerus -44.7122 16.4303 -91.1397
rradius 47.0807 0 0
rwrist -23.9607 0 0
rhand -30.7597 -28.1816 0
rfingers 7.12502 0 0
rthumb -4.05111 -58.1228 0
66
root 8.89568 16.088 -27.5266 5.60004 -8.05853 -1.22254
lfemur -27.1636 5.31488 -21.3602
ltibia 30.844 0 0
lfoot -8.661 8.36352 0
ltoes -2.13605 0 0
rfemur -3.9191 3.1834 22.0605
rtibia 35.9254 0 0
rfoot -11.0371 -6.97521 0
rtoes -18.237 0 0
lowerback -6.54129 -0.196506 -1.22261
upperback -1.38387 -0.344424 3.17715
thorax 2.32004 -0.174972 3.98669
lowerneck -21.8699 -4.27406 -12.0135
upperneck 18.1263 -5.03803 13.0906
head 10.0539 -1.70135 5.92736
lclavicle -2.47582e-14 -1.84142e-14 0
lhumerus -34.0199 -10.5213 89.0808
lradius 25.3379 0 0
lwrist 1.04326 0 0
lhand -3.11512 -20.6743 0
lfingers 7.12502 0 0
lthumb 22.5824 7.79631 0
rclavicle -2.47582e-14 -1.84142e-14 0
rhumerus -44.6644 16.2823 -91.021
rradius 46.6884 0 0
rwrist -23.8367 0 0
rhand -30.7558 -27.905 0
rfingers 7.12502 0 0
rthumb -4.04736 -57.8463 0
67
root 8.92085 16.1055 -27.3968 5.51189 -8.02337 -1.00335
lfemur -26.4706 5.16073 -21.7106
ltibia 30.639 0 0
lfoot -9.05832 8.41749 0
ltoes -2.06576 0 0
rfemur -5.08057 3.06351 21.832
rtibia 37.4223 0 0
rfoot -11.3922 -7.30567 0
rtoes -17.8031 0 0
lowerback -6.45229 -0.256182 -1.38067
upperback -1.39087 -0.410271 3.14109
thorax 2.26794 -0.208153 4.03209
lowerneck -21.8985 -4.25684 -11.9937
upperneck 18.2216 -5.0103 13.0233
head 10.0856 -1.69346 5.9067
lclavicle -2.44814e-14 -1.7144e-14 0
lhumerus -33.5953 -10.6679 88.9666
lradius 25.4285 0 0
lwrist 1.09595 0 0
lhand -3.52446 -20.8101 0
lfingers 7.12502 0 0
lthumb 22.19 7.71321 0
rclavicle -2.44814e-14 -1.7144e-14 0
rhumerus -44.6167 16.1343 -90.9024
rradius 46.2961 0 0
rwrist -23.7127 0 0
rhand -30.752 -27.6284 0
rfingers 7.12502 0 0
rthumb -4.04362 -57.5698 0
68
root 8.94602 16.1229 -27.2671 5.42374 -7.98821 -0.784154
lfemur -25.7775 5.00658 -22.0609
ltibia 30.4339 0 0
lfoot -9.45565 8.47146 0
ltoes -1.99546 0 0
rfemur -6.24204 2.94361 21.6036
rtibia 38.9192 0 0
rfoot -11.7473 -7.63614 0
rtoes -17.3692 0 0
lowerback -6.36329 -0.315859 -1.53872
upperback -1.39788 -0.476118 3.10502
thorax 2.21583 -0.241333 4.0775
lowerneck -21.927 -4.23962 -11.9738
upperneck 18.3168 -4.98257 12.9559
head 10.1173 -1.68557 5.88605
lclavicle -2.42046e-14 -1.58737e-14 0
lhumerus -33.1707 -10.8146 88.8525
lradius 25.5191 0 0
lwrist 1.14863 0 0
lhand -3.9338 -20.9459 0
lfingers 7.12502 0 0
lthumb 21.7977 7.63012 0
rclavicle -2.42046e-14 -1.58737e-14 0
rhumerus -44.5689 15.9863 -90.7838
rradius 45.9038 0 0
rwrist -23.5888 0 0
rhand -30.7481 -27.3519 0
rfingers 7.12502 0 0
rthumb -4.03988 -57.2933 0
69
root 8.97119 16.1404 -27.1374 5.33559 -7.95306 -0.564961
lfemur -25.0845 4.85243 -22.4113
ltibia 30.2289 0 0
lfoot -9.85297 8.52543 0
ltoes -1.92516 0 0
rfemur -7.40351 2.82371 21.3751
rtibia 40.4161 0 0
rfoot -12.1024 -7.9666 0
rtoes -16.9353 0 0
lowerback -6.27428 -0.375535 -1.69678
upperback -1.40488 -0.541964 3.06895
thorax 2.16373 -0.274514 4.1229
lowerneck -21.9556 -4.2224 -11.9539
upperneck 18.4121 -4.95484 12.8886
head 10.149 -1.67768 5.86539
lclavicle -2.39278e-14 -1.46034e-14 0
lhumerus -32.7461 -10.9612 88.7383
lradius 25.6097 0 0
lwrist 1.20132 0 0
lhand -4.34314 -21.0817 0
lfingers 7.12502 0 0
lthumb 21.4053 7.54702 0
rclavicle -2.39278e-14 -1.46034e-14 0
rhumerus -44.5212 15.8384 -90.6652
rradius 45.5116 0 0
rwrist -23.4648 0 0
rhand -30.7442 -27.0753 0
rfingers 7.12502 0 0
rthumb -4.03614 -57.0167 0
70
root 8.99636 16.1578 -27.0076 5.24744 -7.9179 -0.345768
lfemur -24.3914 4.69828 -22.7616
ltibia 30.0238 0 0
lfoot -10.2503 8.5794 0
ltoes -1.85487 0 0
rfemur -8.56498 2.70382 21.1467
rtibia 41.913 0 0
rfoot -12.4575 -8.29707 0
rtoes -16.5014 0 0
lowerback -6.18528 -0.435211 -1.85484
upperback -1.41189 -0.607811 3.03289
thorax 2.11162 -0.307694 4.16831
lowerneck -21.9842 -4.20518 -11.9341
upperneck 18.5073 -4.92711 12.8213
head 10.1808 -1.66979 5.84473
lclavicle -2.3651e-14 -1.33331e-14 0
lhumerus -32.3215 -11.1078 88.6242
lradius 25.7003 0 0
lwrist 1.254 0 0
lhand -4.75248 -21.2175 0
lfingers 7.12502 0 0
lthumb 21.013 7.46393 0
rclavicle -2.3651e-14 -1.33331e-14 0
rhumerus -44.4734 15.6904 -90.5466
rradius 45.1193 0 0
rwrist -23.3409 0 0
rhand -30.7404 -26.7987 0
rfingers 7.12502 0 0
rthumb -4.0324 -56.7402 0
71
root 9.02154 16.1753 -26.8779 5.15929 -7.88274 -0.126575
lfemur -23.6984 4.54413 -23.1119
ltibia 29.8187 0 0
lfoot -10.6476 8.63337 0
ltoes -1.78457 0 0
rfemur -9.72645 2.58392 20.9182
rtibia 43.4099 0 0
rfoot -12.8126 -8.62753 0
rtoes -16.0675 0 0
lowerback -6.09628 -0.494887 -2.0129
upperback -1.4189 -0.673658 2.99682
thorax 2.05952 -0.340875 4.21371
lowerneck -22.0127 -4.18796 -11.9142
upperneck 18.6025 -4.89938 12.754
head 10.2125 -1.66191 5.82408
lclavicle -2.33742e-14 -1.20628e-14 0
lhumerus -31.897 -11.2545 88.5101
lradius 25.7909 0 0
lwrist 1.30669 0 0
lhand -5.16182 -21.3532 0
lfingers 7.12502 0 0
lthumb 20.6207 7.38084 0
rclavicle -2.33742e-14 -1.20628e-14 0
rhumerus -44.4256 15.5424 -90.4279
rradius 44.727 0 0
rwrist -23.2169 0 0
rhand -30.7365 -26.5221 0
rfingers 7.12502 0 0
rthumb -4.02866 -56.4637 0
72
root 9.04671 16.1927 -26.7482 5.07114 -7.84759 0.0926178
lfemur -23.0054 4.38998 -23.4623
ltibia 29.6137 0 0
lfoot -11.0449 8.68734 0
ltoes -1.71428 0 0
rfemur -10.8879 2.46402 20.6897
rtibia 44.9068 0 0
rfoot -13.1678 -8.95799 0
rtoes -15.6336 0 0
lowerback -6.00727 -0.554563 -2.17095
upperback -1.4259 -0.739505 2.96075
thorax 2.00742 -0.374056 4.25911
lowerneck -22.0413 -4.17074 -11.8943
upperneck 18.6978 -4.87165 12.6867
head 10.2442 -1.65402 5.80342
lclavicle -2.30974e-14 -1.07925e-14 0
lhumerus -31.4724 -11.4011 88.3959
lradius 25.8815 0 0
lwrist 1.35937 0 0
lhand -5.57116 -21.489 0
lfingers 7.12502 0 0
lthumb 20.2283 7.29774 0
rclavicle -2.30974e-14 -1.07925e-14 0
rhumerus -44.3779 15.3944 -90.3093
rradius 44.3347 0 0
rwrist -23.0929 0 0
rhand -30.7326 -26.2455 0
rfingers 7.12502 0 0
rthumb -4.02492 -56.1872 0
73
root 9.07188 16.2102 -26.6184 4.98298 -7.81243 0.311811
lfemur -22.3123 4.23583 -23.8126
ltibia 29.4086 0 0
lfoot -11.4423 8.74131 0
ltoes -1.64398 0 0
rfemur -12.0494 2.34412 20.4613
rtibia 46.4037 0 0
rfoot -13.5229 -9.28846 0
rtoes -15.1997 0 0
lowerback -5.91827 -0.614239 -2.32901
upperback -1.43291 -0.805352 2.92469
thorax 1.95531 -0.407236 4.30452
lowerneck -22.0699 -4.15352 -11.8744
upperneck 18.793 -4.84392 12.6194
head 10.2759 -1.64613 5.78276
lclavicle -2.28205e-14 -9.52227e-15 0
lhumerus -31.0478 -11.5477 88.2818
lradius 25.9722 0 0
lwrist 1.41206 0 0
lhand -5.9805 -21.6248 0
lfingers 7.12502 0 0
lthumb 19.836 7.21465 0
rclavicle -2.28205e-14 -9.52227e-15 0
rhumerus -44.3301 15.2464 -90.1907
rradius 43.9424 0 0
rwrist -22.969 0 0
rhand -30.7287 -25.9689 0
rfingers 7.12502 0 0
rthumb -4.02117 -55.9107 0
